<?xml version="1.0" encoding="UTF-8" standalone="no"?>
<!-- Created with Inkscape (http://www.inkscape.org/) -->

<svg
   xmlns:dc="http://purl.org/dc/elements/1.1/"
   xmlns:cc="http://creativecommons.org/ns#"
   xmlns:rdf="http://www.w3.org/1999/02/22-rdf-syntax-ns#"
   xmlns:svg="http://www.w3.org/2000/svg"
   xmlns="http://www.w3.org/2000/svg"
   xmlns:sodipodi="http://sodipodi.sourceforge.net/DTD/sodipodi-0.dtd"
   xmlns:inkscape="http://www.inkscape.org/namespaces/inkscape"
   width="210mm"
   height="297mm"
   viewBox="0 0 210 297"
   version="1.1"
   id="svg8"
   inkscape:version="0.92.4 5da689c313, 2019-01-14"
   sodipodi:docname="drawing.svg">
  <defs
     id="defs2" />
  <sodipodi:namedview
     id="base"
     pagecolor="#ffffff"
     bordercolor="#666666"
     borderopacity="1.0"
     inkscape:pageopacity="0.0"
     inkscape:pageshadow="2"
     inkscape:zoom="0.35"
     inkscape:cx="408.57143"
     inkscape:cy="551.42857"
     inkscape:document-units="mm"
     inkscape:current-layer="layer1"
     showgrid="false"
     inkscape:window-width="3840"
     inkscape:window-height="2108"
     inkscape:window-x="0"
     inkscape:window-y="0"
     inkscape:window-maximized="1" />
  <metadata
     id="metadata5">
    <rdf:RDF>
      <cc:Work
         rdf:about="">
        <dc:format>image/svg+xml</dc:format>
        <dc:type
           rdf:resource="http://purl.org/dc/dcmitype/StillImage" />
        <dc:title></dc:title>
      </cc:Work>
    </rdf:RDF>
  </metadata>
  <g
     inkscape:label="Layer 1"
     inkscape:groupmode="layer"
     id="layer1">
    <path
       sodipodi:type="spiral"
       style="fill:#d40000;fill-rule:evenodd;stroke:#000000;stroke-width:0.26458332"
       id="path3734"
       sodipodi:cx="55.940475"
       sodipodi:cy="59.630951"
       sodipodi:expansion="1"
       sodipodi:revolution="3"
       sodipodi:radius="39.425652"
       sodipodi:argument="-17.84549"
       sodipodi:t0="0"
       d="m 55.940475,59.630951 c 1.061265,1.667698 -1.724433,2.253346 -2.771824,1.763891 -2.838363,-1.326395 -2.468492,-5.257333 -0.755957,-7.307539 3.063324,-3.667338 8.734951,-2.916356 11.843254,0.251976 4.561559,4.649654 3.388991,12.263901 -1.25991,16.378968 -6.196252,5.484738 -15.811617,3.872871 -20.914683,-2.267842 -6.421688,-7.727462 -4.362708,-19.368411 3.275776,-25.450399 9.251227,-7.366101 22.930344,-4.85602 29.986113,4.28371 8.31498,10.770855 5.351518,26.495485 -5.291643,34.521828 C 57.763651,91.072275 39.988834,87.654018 30.994059,75.505968 20.773623,61.70258 24.647609,41.874415 38.301568,31.91271 53.619246,20.737182 75.503001,25.067547 86.430541,40.228153 98.562181,57.059299 93.77497,81.00029 77.107164,92.89284" />
    <path
       sodipodi:type="spiral"
       style="fill:#ffcc00;fill-rule:evenodd;stroke:#000000;stroke-width:0.26458332"
       id="path3736"
       sodipodi:cx="110.36904"
       sodipodi:cy="55.851189"
       sodipodi:expansion="1"
       sodipodi:revolution="3"
       sodipodi:radius="32.820873"
       sodipodi:argument="-17.783621"
       sodipodi:t0="0"
       d="m 110.36904,55.851189 c 0.79595,1.440285 -1.54878,1.783507 -2.39385,1.322916 -2.29007,-1.248172 -1.78042,-4.495282 -0.25198,-6.110615 2.73402,-2.889453 7.40782,-1.97355 9.82738,0.818949 3.5508,4.098105 2.18461,10.364295 -1.88988,13.544148 -5.43067,4.238242 -13.33694,2.404056 -17.260916,-2.960816 -4.937925,-6.751144 -2.62798,-16.317426 4.031746,-20.977679 8.06583,-5.644191 19.30237,-2.854528 24.69445,5.102682 6.35438,9.377296 3.08272,22.290081 -6.17362,28.41121 -10.68681,7.067087 -25.279649,3.312026 -32.127974,-7.244548 -7.781501,-11.99505 -3.542094,-28.270524 8.315481,-35.844742 13.302413,-8.497128 31.262343,-3.77272 39.561513,9.386414 9.21364,14.609134 4.00376,34.254877 -10.45735,43.278274" />
    <path
       sodipodi:type="spiral"
       style="fill:#44aa00;fill-rule:evenodd;stroke:#000000;stroke-width:0.26458332"
       id="path3738"
       sodipodi:cx="26.458332"
       sodipodi:cy="149.58928"
       sodipodi:expansion="1"
       sodipodi:revolution="3"
       sodipodi:radius="42.562199"
       sodipodi:argument="-17.861835"
       sodipodi:t0="0"
       d="m 26.458332,149.58928 c 1.174969,1.78141 -1.821612,2.46272 -2.960815,1.95287 -3.087168,-1.38164 -2.757289,-5.63127 -0.944935,-7.8745 3.241876,-4.01262 9.377149,-3.30208 12.788194,0.063 5.005846,4.9384 3.874521,13.178 -1.070944,17.70189 -6.591527,6.02962 -16.998907,4.45943 -22.615573,-2.07889 -7.0680012,-8.22779 -5.050926,-20.8295 3.086823,-27.52926 9.855905,-8.1143 24.665596,-5.64626 32.442953,4.09476 9.165345,11.47947 6.244021,28.50511 -5.102703,37.35665 -13.100242,10.21944 -32.3469055,6.84338 -42.2703318,-6.11065 -11.2756272,-14.71919 -7.4438818,-36.1903 7.118582,-47.18402 16.3368838,-12.33328 40.0348778,-8.04519 52.0977108,8.12652 13.392031,17.95367 8.647113,43.88033 -9.134461,57.0114" />
    <path
       sodipodi:type="spiral"
       style="fill:#ffd42a;fill-rule:evenodd;stroke:#000000;stroke-width:0.26458332"
       id="path3740"
       sodipodi:cx="65.767853"
       sodipodi:cy="238.03571"
       sodipodi:expansion="1"
       sodipodi:revolution="3"
       sodipodi:radius="42.976406"
       sodipodi:argument="-17.964489"
       sodipodi:t0="0"
       d="m 65.767853,238.03571 c 1.364481,1.66769 -1.574839,2.66207 -2.771826,2.26785 -3.243761,-1.06831 -3.352136,-5.37084 -1.763888,-7.81151 2.841005,-4.36578 9.076893,-4.28692 12.85119,-1.25991 5.538933,4.44225 5.255167,12.83529 0.755951,17.89087 -5.996749,6.73828 -16.612561,6.23801 -22.930555,0.25198 -7.950551,-7.53281 -7.228473,-20.39888 0.251988,-27.97024 9.05984,-9.16993 24.190305,-8.22336 33.009919,0.75596 10.393609,10.58182 9.221036,27.98492 -1.259926,38.0496 -12.100684,11.62007 -31.781671,10.22056 -43.089283,-1.76389 -12.848428,-13.61751 -11.221388,-35.57992 2.267863,-48.12897 15.132901,-14.07814 39.379245,-12.22315 53.168648,2.77183 15.308846,16.64728 13.225626,43.1794 -3.275801,58.20833" />
    <path
       sodipodi:type="spiral"
       style="fill:#abc837;fill-rule:evenodd;stroke:#000000;stroke-width:0.26458332"
       id="path3742"
       sodipodi:cx="112.6369"
       sodipodi:cy="112.54762"
       sodipodi:expansion="1"
       sodipodi:revolution="3"
       sodipodi:radius="54.747864"
       sodipodi:argument="-17.897404"
       sodipodi:t0="0"
       d="m 112.6369,112.54762 c 1.5919,2.23624 -2.22901,3.24912 -3.71676,2.64584 -4.03172,-1.63488 -3.80205,-7.11282 -1.5749,-10.07937 3.98385,-5.30647 11.90317,-4.67372 16.44196,-0.50396 6.66085,6.11928 5.58344,16.76294 -0.56697,22.80456 -8.19753,8.05253 -21.64792,6.51011 -29.16716,-1.63791 -9.462192,-10.25344 -7.44569,-26.54506 2.708837,-35.529756 12.298493,-10.881671 31.449083,-8.386462 41.892363,3.779772 12.30704,14.337484 9.33049,36.357384 -4.85071,48.254954 -16.37276,13.73622 -41.268559,10.27671 -54.617556,-5.92164 -15.167978,-18.40559 -11.22444,-46.181739 6.992573,-60.980151 20.436733,-16.601583 51.096393,-12.173276 67.342753,8.063507 18.03654,22.466664 13.12294,56.012144 -9.13444,73.705354" />
  </g>
</svg>
